<?xml version="1.0" encoding="UTF-8" standalone="no"?>
<!DOCTYPE svg PUBLIC "-//W3C//DTD SVG 1.1//EN" "http://www.w3.org/Graphics/SVG/1.1/DTD/svg11.dtd">
<svg width="100%" height="100%" viewBox="0 0 960 900" version="1.1" xmlns="http://www.w3.org/2000/svg" xmlns:xlink="http://www.w3.org/1999/xlink" xml:space="preserve" xmlns:serif="http://www.serif.com/" style="fill-rule:evenodd;clip-rule:evenodd;stroke-linejoin:round;stroke-miterlimit:2;">
    <g transform="matrix(4.16667,0,0,4.16667,0,0)">
        <path d="M180.298,0L135.624,107.881L185.525,107.881L230.198,0L180.298,0ZM120.416,146.614C120.416,161.584 132.059,173.94 147.743,173.94C163.901,173.94 176.02,161.109 176.02,145.663C176.02,130.455 164.377,118.337 148.693,118.337C132.535,118.337 120.416,131.406 120.416,146.614ZM0,52.753L50.851,172.753L32.554,216L77.227,216L144.95,52.753L100.515,52.753L72.95,122.614L45.623,52.753L0,52.753Z" style="fill:white;fill-rule:nonzero;"/>
    </g>
</svg>
